<?xml version="1.0" encoding="utf-8"?>
<!-- Generator: Adobe Illustrator 22.1.0, SVG Export Plug-In . SVG Version: 6.00 Build 0)  -->
<svg version="1.1" id="Capa_1" xmlns="http://www.w3.org/2000/svg" xmlns:xlink="http://www.w3.org/1999/xlink" x="0px" y="0px"
	 viewBox="0 0 500 500" style="enable-background:new 0 0 500 500;" xml:space="preserve">
<style type="text/css">
	.st0{opacity:0.2;}
	.st1{fill:#2D2C2F;}
	.st2{fill:#F3F2EF;}
	.st3{font-family:'Avenir-Book';}
	.st4{font-size:204.7471px;}
	.st5{fill:#F5F4F0;}
	.st6{fill:#923E2A;}
</style>
<g>
	<g class="st0">
		<rect x="0.8" y="32.2" class="st1" width="463.8" height="463.8"/>
	</g>
	<g>
		<rect x="36.1" y="4" class="st1" width="463.8" height="463.8"/>
	</g>
	<text transform="matrix(1 0 0 1 190.2783 306.4824)" class="st2 st3 st4">H</text>
</g>
<g>
	<g>
		<rect x="34.8" y="0.3" class="st5" width="465.2" height="466.7"/>
	</g>
	<g>
		<g>
			<path class="st6" d="M263.6,170.4l-89.7,74.2c0,0.1,0,0.3-0.1,0.5c-0.1,0.2-0.1,0.4-0.1,0.5v75.1c0,2.7,1,5.1,3,7c2,2,4.3,3,7,3
				h59.9v-60.1h39.9v60.1h59.9c2.7,0,5-1,7-3c2-2,3-4.3,3-7v-75.1c0-0.4-0.1-0.7-0.2-0.9L263.6,170.4z"/>
			<path class="st6" d="M387.7,227.7l-34.2-28.5v-63.9c0-1.5-0.5-2.7-1.4-3.6c-0.9-0.9-2.1-1.4-3.6-1.4h-30c-1.5,0-2.7,0.5-3.6,1.4
				c-0.9,0.9-1.4,2.1-1.4,3.6v30.5l-38.1-31.9c-3.3-2.7-7.3-4.1-11.9-4.1c-4.6,0-8.5,1.4-11.9,4.1l-112.2,93.7c-1,0.8-1.6,2-1.7,3.4
				c-0.1,1.4,0.3,2.6,1.1,3.7l9.7,11.6c0.8,0.9,1.9,1.5,3.3,1.7c1.2,0.1,2.5-0.3,3.7-1.1l108-90.3l108,90.3c0.8,0.7,1.9,1.1,3.3,1.1
				h0.5c1.4-0.2,2.4-0.8,3.3-1.7l9.7-11.6c0.8-1,1.2-2.3,1.1-3.7C389.3,229.6,388.7,228.5,387.7,227.7z"/>
		</g>
	</g>
</g>
</svg>
