<svg id="Capa_1" data-name="Capa 1" xmlns="http://www.w3.org/2000/svg" viewBox="0 0 499.2 495.7"><defs><style>.cls-1{opacity:0.6;}.cls-2{fill:#2d2c2f;}.cls-3{isolation:isolate;font-size:204.75px;fill:#f3f2ef;font-family:Avenir-Book, Avenir;}.cls-4{fill:#f5f4f0;}.cls-5{fill:#923e2a;}</style></defs><title>kinestetic</title><g class="cls-1"><rect class="cls-2" y="31.9" width="463.8" height="463.8"/></g><rect class="cls-2" x="35.3" y="3.7" width="463.8" height="463.8"/><text class="cls-3" transform="translate(189.48 306.18)">H</text><rect class="cls-4" x="34" width="465.2" height="466.7"/><path class="cls-5" d="M263.6,170.4l-89.7,74.2a1.09,1.09,0,0,1-.1.5,1.09,1.09,0,0,0-.1.5v75.1a9.38,9.38,0,0,0,3,7,9.54,9.54,0,0,0,7,3h59.9V270.6h39.9v60.1h59.9a10.25,10.25,0,0,0,10-10V245.6a2,2,0,0,0-.2-.9Z" transform="translate(-0.8 -0.3)"/><path class="cls-5" d="M387.7,227.7l-34.2-28.5V135.3a4.8,4.8,0,0,0-5-5h-30a4.8,4.8,0,0,0-5,5v30.5l-38.1-31.9a18.29,18.29,0,0,0-11.9-4.1,18.49,18.49,0,0,0-11.9,4.1L139.4,227.6a4.69,4.69,0,0,0-1.7,3.4,5.42,5.42,0,0,0,1.1,3.7l9.7,11.6a5.28,5.28,0,0,0,3.3,1.7,5.91,5.91,0,0,0,3.7-1.1l108-90.3,108,90.3a4.86,4.86,0,0,0,3.3,1.1h.5a5.55,5.55,0,0,0,3.3-1.7l9.7-11.6a5.27,5.27,0,0,0,1.1-3.7A4.47,4.47,0,0,0,387.7,227.7Z" transform="translate(-0.8 -0.3)"/></svg>