<?xml version="1.0" encoding="utf-8"?>
<!-- Generator: Adobe Illustrator 22.1.0, SVG Export Plug-In . SVG Version: 6.00 Build 0)  -->
<svg version="1.1" id="Capa_1" xmlns="http://www.w3.org/2000/svg" xmlns:xlink="http://www.w3.org/1999/xlink" x="0px" y="0px"
	 viewBox="0 0 500 300" style="enable-background:new 0 0 500 300;" xml:space="preserve">
<style type="text/css">
	.st0{fill:#F5F4F0;}
	.st1{fill:#9A3324;}
</style>
<g>
	<rect y="106" class="st0" width="88" height="88"/>
	<g>
		<g>
			<path class="st1" d="M43.7,165.9v-29.8c-1.7,1.5-5.5,3.4-7.4,3.9v-2.4c2.2-0.8,5.4-2.7,7.9-4.9h2.2v33.2H43.7z"/>
		</g>
	</g>
</g>
<g>
	<rect x="139" y="107" class="st0" width="88" height="88"/>
	<g>
		<g>
			<path class="st1" d="M173.8,166.9v-0.1c0-4.1,3.5-9.2,10.1-14.3c5.7-4.5,7.2-5.8,7.2-10c0-3.6-2-6.7-6.8-6.7
				c-4.5,0-6.9,2.2-7.7,7H174c0.6-5.5,4.1-9.4,10.3-9.4c6.7,0,9.5,4.6,9.5,9c0,5.1-2.1,6.8-8.3,11.8c-4.9,4-7.8,7.1-8.8,10.3h18.4
				l-0.5,2.5H173.8z"/>
		</g>
	</g>
</g>
<g>
	<rect x="412" y="106" class="st0" width="88" height="88"/>
	<g>
		<g>
			<path class="st1" d="M462.2,165.9v-9.2h-15.9v-2.5l15.8-21.3h2.6v21.3h4.4l-0.3,2.4h-4.1v9.2H462.2z M462.2,144.4
				c0-1.9,0.1-6,0.1-8.2c-1.3,2.4-9.2,12.9-13,18.1h12.9V144.4z"/>
		</g>
	</g>
</g>
<g>
	<rect x="274" y="106" class="st0" width="88" height="88"/>
	<g>
		<g>
			<path class="st1" d="M307.3,140.4c0.5-4.1,3.5-8,9.7-8c6.3,0,9.2,4.1,9.2,8.3c0,4.1-2.4,6.2-4.6,6.9v0.1c3.5,1,6.1,3.8,6.1,8.6
				c0,5.5-3.5,10.3-10.8,10.3c-6.7,0-10-4.4-10.7-8.8h2.6c0.8,3.4,3.5,6.4,8.3,6.4c5.7,0,7.8-3.8,7.8-7.8c0-5.2-3.4-7.4-8.3-7.4
				h-1.9v-2.3h1.5c5,0,7.3-2.1,7.3-6c0-3.5-2.4-5.9-6.6-5.9c-4.3,0-6.2,2.3-7,5.6H307.3z"/>
		</g>
	</g>
</g>
</svg>
