<?xml version="1.0" encoding="utf-8"?>
<!-- Generator: Adobe Illustrator 22.1.0, SVG Export Plug-In . SVG Version: 6.00 Build 0)  -->
<svg version="1.1" id="Capa_1" xmlns="http://www.w3.org/2000/svg" xmlns:xlink="http://www.w3.org/1999/xlink" x="0px" y="0px"
	 viewBox="0 0 500 500" style="enable-background:new 0 0 500 500;" xml:space="preserve">
<style type="text/css">
	.st0{opacity:0.2;}
	.st1{fill:#2D2C2F;}
	.st2{fill:#F3F2EF;}
	.st3{font-family:'Avenir-Book';}
	.st4{font-size:204.7471px;}
	.st5{fill:#F5F4F0;}
	.st6{fill:#923E2A;}
</style>
<g>
	<g class="st0">
		<rect x="0.8" y="32.2" class="st1" width="463.8" height="463.8"/>
	</g>
	<g>
		<rect x="36.1" y="4" class="st1" width="463.8" height="463.8"/>
	</g>
	<text transform="matrix(1 0 0 1 190.2783 306.4824)" class="st2 st3 st4">H</text>
</g>
<g>
	<g>
		<rect x="0" y="0.3" class="st5" width="499.5" height="499.5"/>
	</g>
	<g>
		<g>
			<path class="st6" d="M245.7,182.3l-96.3,79.4c0,0.1,0,0.3-0.1,0.5c-0.1,0.2-0.1,0.4-0.1,0.5v80.4c0,2.9,1.1,5.4,3.2,7.5
				c2.1,2.1,4.6,3.2,7.5,3.2h64.3v-64.3h42.9v64.3h64.3c2.9,0,5.4-1.1,7.5-3.2c2.1-2.1,3.2-4.6,3.2-7.5v-80.4c0-0.4-0.1-0.8-0.2-1
				L245.7,182.3z"/>
			<path class="st6" d="M378.9,243.6l-36.7-30.5v-68.3c0-1.6-0.5-2.8-1.5-3.9c-1-1-2.3-1.5-3.9-1.5h-32.2c-1.6,0-2.8,0.5-3.9,1.5
				c-1,1-1.5,2.3-1.5,3.9v32.7l-40.9-34.2c-3.6-2.9-7.8-4.4-12.7-4.4c-4.9,0-9.2,1.5-12.7,4.4L112.5,243.6c-1.1,0.9-1.7,2.1-1.8,3.6
				c-0.1,1.5,0.3,2.8,1.2,3.9l10.4,12.4c0.9,1,2.1,1.6,3.5,1.8c1.3,0.1,2.7-0.3,4-1.2l115.9-96.6l115.9,96.6
				c0.9,0.8,2.1,1.2,3.5,1.2h0.5c1.4-0.2,2.6-0.8,3.5-1.8l10.4-12.4c0.9-1.1,1.3-2.4,1.2-3.9C380.6,245.7,380,244.5,378.9,243.6z"/>
		</g>
	</g>
</g>
</svg>
