<?xml version="1.0" encoding="utf-8"?>
<!-- Generator: Adobe Illustrator 22.1.0, SVG Export Plug-In . SVG Version: 6.00 Build 0)  -->
<svg version="1.1" id="Capa_1" xmlns="http://www.w3.org/2000/svg" xmlns:xlink="http://www.w3.org/1999/xlink" x="0px" y="0px"
	 viewBox="0 0 448 448" style="enable-background:new 0 0 448 448;" xml:space="preserve">
<style type="text/css">
	.st0{fill:#9A3324;}
</style>
<path class="st0" d="M272,352v-21.9c0-3,1.6-5.7,4.3-7.1c45.5-24,68.8-76,56.5-126c-12.4-50-57.2-85.1-108.7-85.1
	S127.8,147,115.4,197s10.9,102,56.5,126c2.6,1.4,4.3,4.1,4.3,7.1V352"/>
<path class="st0" d="M402.7,180.2c-2.2-9.1-5.1-18-8.7-26.7c-2.7-6.3-5.7-12.5-9.1-18.5c-1.2-2.1-2.3-4.3-3.6-6.4l-2.9-4.7L405.6,89
	L359,42.4l-34.9,27.2l-4.7-2.9c-2.1-1.3-4.4-2.4-6.5-3.6c-6-3.3-12.1-6.3-18.4-9c-8.7-3.6-17.6-6.5-26.7-8.7l-5.3-1.3l-5.5-44h-65.9
	l-5.5,44l-5.4,1.3c-9.1,2.2-18.1,5.1-26.7,8.7c-6.3,2.7-12.4,5.7-18.4,9c-2.2,1.2-4.4,2.3-6.5,3.6l-4.7,2.9l-35-27.2L42.3,88.9
	l27.2,34.9l-2.9,4.7c-1.3,2.1-2.4,4.3-3.6,6.4c-3.4,6-6.4,12.2-9.1,18.5c-3.6,8.7-6.5,17.6-8.7,26.7l-1.3,5.4l-44,5.5v65.9l44,5.5
	l1.3,5.4c2.2,9.1,5.1,18,8.7,26.7c2.7,6.3,5.7,12.5,9.1,18.5c1.2,2.1,2.3,4.3,3.6,6.4l2.9,4.7L42.3,359l46.6,46.6l34.9-27.2l4.7,2.9
	c0.6,0.4,1.2,0.7,1.8,1.1c2.5,1.5,5,2.9,7.5,4.3c4.3,2.3,8.8,4.4,13.4,6.4c-4.7-4.4-7.3-10.6-7.3-17c0-10.1,6.4-19.1,16-22.5v-18.7
	c-50.2-29-74.6-88-59.6-144S166,96,223.9,96s108.6,38.9,123.6,94.9s-9.5,115-59.6,144v18.7c9.6,3.4,16,12.4,16,22.5
	c0,6.4-2.7,12.6-7.3,17c3.9-1.7,7.8-3.5,11.6-5.5c3.4-1.8,6.8-3.6,10-5.6c0.4-0.2,0.7-0.4,1.1-0.6l4.7-2.9l35,27.2l46.6-46.6
	l-27.2-34.9l2.9-4.7c1.3-2.1,2.4-4.3,3.6-6.4c3.4-6,6.4-12.2,9.1-18.5c3.6-8.7,6.5-17.6,8.7-26.7l1.3-5.4l44-5.5v-65.8l-44-5.5
	L402.7,180.2z"/>
<path class="st0" d="M185.5,424.1c3.4,9.6,12.4,23.8,22.5,23.9h32c10.1,0,19.1-14.3,22.5-23.9H185.5z"/>
<path class="st0" d="M183.7,412.1h79.7c4.4,0,24.7-9.9,24.7-22.1s-3.6-22.1-8-22.1H168c-4.4,0-8,9.9-8,22.1S179.3,412.1,183.7,412.1
	z"/>
</svg>
