<svg xmlns="http://www.w3.org/2000/svg" viewBox="0 0 255.79 55.66"><defs><style>.cls-1{fill:#2d2c2f;}.cls-2{fill:#a8281a;}</style></defs><title>Recurso 4</title><g id="Capa_2" data-name="Capa 2"><g id="Capa_1-2" data-name="Capa 1"><path class="cls-1" d="M1.88,15.93,15.13,9.1v2L4,16.67v.06l11.16,5.59v2L1.88,17.47Z" transform="translate(-1.88 -4.02)"/><path class="cls-1" d="M23.18,4.31h1.54V22.86H35.45l-.28,1.43h-12Z" transform="translate(-1.88 -4.02)"/><path class="cls-1" d="M53.64,14.47H43.44v8.39H54.61l-.23,1.43H41.9v-20H54.15V5.73H43.44V13h10.2Z" transform="translate(-1.88 -4.02)"/><path class="cls-1" d="M78.58,14.16c0,5.45-2.91,10.42-9.07,10.42-5.63,0-8.91-4.54-8.91-10.28S63.77,4,69.71,4C75.19,4,78.58,8.33,78.58,14.16Zm-16.33.05c0,4.6,2.54,8.94,7.34,8.94,5.17,0,7.34-4.23,7.34-9s-2.46-8.73-7.28-8.73C64.51,5.45,62.25,9.7,62.25,14.21Z" transform="translate(-1.88 -4.02)"/><path class="cls-1" d="M86.34,24.29v-20h2.29c3.11,4.79,10.42,16,11.67,18.13h0c-.17-2.89-.14-5.83-.14-9.08v-9h1.57v20H99.65c-3-4.62-10.39-16.24-11.82-18.44h0c.14,2.62.11,5.54.11,9.16v9.28Z" transform="translate(-1.88 -4.02)"/><path class="cls-1" d="M112.86,17.38l-2.54,6.91h-1.57l7.34-20h1.82l7.65,20h-1.68l-2.6-6.91ZM120.77,16C118.54,10,117.4,7.16,117,5.82h0c-.48,1.51-1.77,5-3.57,10.13Z" transform="translate(-1.88 -4.02)"/><path class="cls-1" d="M134,15v9.33h-1.57v-20h7.17c3.93,0,6,2.11,6,5.25a4.52,4.52,0,0,1-3.74,4.68c2.05.49,3.42,1.83,3.42,5.23v.77c0,1.4-.11,3.28.26,4.05H144a13.42,13.42,0,0,1-.28-4.17v-.51c0-3.28-1-4.65-4.8-4.65Zm0-1.43h4.82c3.52,0,5.14-1.32,5.14-3.94,0-2.46-1.6-3.86-4.71-3.86H134Z" transform="translate(-1.88 -4.02)"/><path class="cls-1" d="M153.9,4.31h6.63c5.48,0,9.28,3.82,9.28,9.82s-3.71,10.16-9.31,10.16h-6.6Zm1.55,18.55h4.82c5.28,0,7.88-3.71,7.88-8.65,0-4.39-2.34-8.48-7.88-8.48h-4.82Z" transform="translate(-1.88 -4.02)"/><path class="cls-1" d="M194.35,14.16c0,5.45-2.91,10.42-9.07,10.42-5.63,0-8.91-4.54-8.91-10.28S179.54,4,185.48,4C191,4,194.35,8.33,194.35,14.16ZM178,14.21c0,4.6,2.54,8.94,7.34,8.94,5.17,0,7.34-4.23,7.34-9s-2.46-8.73-7.28-8.73C180.28,5.45,178,9.7,178,14.21Z" transform="translate(-1.88 -4.02)"/><path class="cls-1" d="M214.45,17.5,201.2,24.29v-2l11.25-5.59v-.06l-11.25-5.6v-2l13.25,6.8Z" transform="translate(-1.88 -4.02)"/><path class="cls-1" d="M105.68,50.18l13.25-6.83v2l-11.16,5.6V51l11.16,5.59v2l-13.25-6.82Z" transform="translate(-1.88 -4.02)"/><path class="cls-1" d="M124.15,59.68l8-20.69h1.94l-8,20.69Z" transform="translate(-1.88 -4.02)"/><path class="cls-1" d="M155.55,58.54h-1.29a15.37,15.37,0,0,1-.2-3.19c-.71,1.37-2.28,3.42-6.45,3.42-5.74,0-8.68-4.37-8.68-10.05,0-6,3.14-10.45,9-10.45,4.31,0,7.16,2.26,7.79,5.94h-1.54c-.86-2.83-2.83-4.51-6.31-4.51-5,0-7.28,3.88-7.28,8.94,0,4.56,2.2,8.7,7.08,8.7s6.39-3.25,6.39-7.68v-.22h-6.45V48h7.94Z" transform="translate(-1.88 -4.02)"/><path class="cls-1" d="M165.65,49.21v9.33h-1.57v-20h7.17c3.94,0,6,2.11,6,5.25a4.52,4.52,0,0,1-3.74,4.68c2.06.49,3.43,1.83,3.43,5.23v.77c0,1.4-.12,3.28.25,4h-1.57a13.35,13.35,0,0,1-.28-4.16v-.52c0-3.28-1-4.65-4.8-4.65Zm0-1.43h4.83c3.51,0,5.13-1.31,5.13-3.94,0-2.46-1.59-3.85-4.71-3.85h-5.25Z" transform="translate(-1.88 -4.02)"/><path class="cls-1" d="M187.06,38.56v20h-1.54v-20Z" transform="translate(-1.88 -4.02)"/><path class="cls-1" d="M196.31,58.54v-20h2.28c3.11,4.79,10.42,16,11.68,18.13h0c-.17-2.89-.14-5.83-.14-9.08v-9h1.57v20h-2.11c-3-4.62-10.39-16.24-11.82-18.44h0c.14,2.63.12,5.54.12,9.16v9.28Z" transform="translate(-1.88 -4.02)"/><path class="cls-2" d="M221,58.54v-20h2.28c3.11,4.79,10.42,16,11.68,18.13h0c-.18-2.89-.15-5.83-.15-9.08v-9h1.57v20h-2.11c-3-4.62-10.39-16.24-11.82-18.44h0c.14,2.63.12,5.54.12,9.16v9.28Z" transform="translate(-1.88 -4.02)"/><path class="cls-1" d="M257.68,51.75l-13.25,6.79v-2L255.68,51v-.06l-11.25-5.6v-2l13.25,6.8Z" transform="translate(-1.88 -4.02)"/></g></g></svg>