<svg xmlns="http://www.w3.org/2000/svg" viewBox="0 0 297.97 71.64"><defs><style>.cls-1{fill:#2d2c2f;}.cls-2{fill:#f4f5ef;}.cls-3{fill:#a8281a;}</style></defs><title>Recurso 3</title><g id="Capa_2" data-name="Capa 2"><g id="Capa_1-2" data-name="Capa 1"><rect class="cls-1" width="258.89" height="33.38"/><rect class="cls-1" y="38.26" width="297.97" height="33.38"/><path class="cls-2" d="M2.15,18.17l15.11-7.78v2.25L4.53,19v.06l12.73,6.39v2.24L2.15,19.93Z" transform="translate(-0.14 -0.32)"/><path class="cls-2" d="M26.44,4.92H28.2V26.08H40.44l-.32,1.63H26.44Z" transform="translate(-0.14 -0.32)"/><path class="cls-2" d="M61.19,16.51H49.56v9.57H62.29L62,27.71H47.8V4.92h14V6.55H49.56v8.33H61.19Z" transform="translate(-0.14 -0.32)"/><path class="cls-2" d="M89.65,16.15C89.65,22.37,86.33,28,79.29,28c-6.41,0-10.16-5.18-10.16-11.72S72.75,4.59,79.52,4.59C85.77,4.59,89.65,9.51,89.65,16.15ZM71,16.22c0,5.24,2.9,10.19,8.37,10.19,5.9,0,8.37-4.82,8.37-10.22s-2.8-10-8.3-10C73.6,6.22,71,11.07,71,16.22Z" transform="translate(-0.14 -0.32)"/><path class="cls-2" d="M98.51,27.71V4.92h2.6c3.55,5.47,11.89,18.2,13.32,20.68h0c-.19-3.29-.16-6.65-.16-10.36V4.92h1.79V27.71h-2.41c-3.39-5.27-11.85-18.53-13.48-21h0c.16,3,.13,6.31.13,10.45V27.71Z" transform="translate(-0.14 -0.32)"/><path class="cls-2" d="M128.76,19.83l-2.9,7.88h-1.79l8.37-22.79h2.08l8.73,22.79h-1.92l-3-7.88Zm9-1.63c-2.54-6.77-3.84-10-4.3-11.56h0c-.56,1.73-2,5.77-4.07,11.56Z" transform="translate(-0.14 -0.32)"/><path class="cls-2" d="M152.92,17.06V27.71h-1.79V4.92h8.17c4.5,0,6.87,2.41,6.87,6a5.15,5.15,0,0,1-4.26,5.34c2.34.55,3.91,2.08,3.91,6v.88c0,1.59-.13,3.74.29,4.62h-1.79c-.42-1-.33-2.8-.33-4.75v-.59c0-3.74-1.1-5.31-5.47-5.31Zm0-1.62h5.5c4,0,5.87-1.5,5.87-4.5,0-2.8-1.83-4.39-5.38-4.39h-6Z" transform="translate(-0.14 -0.32)"/><path class="cls-2" d="M175.59,4.92h7.55c6.25,0,10.58,4.36,10.58,11.2s-4.23,11.59-10.61,11.59h-7.52Zm1.75,21.16h5.51c6,0,9-4.23,9-9.86,0-5-2.67-9.67-9-9.67h-5.51Z" transform="translate(-0.14 -0.32)"/><path class="cls-2" d="M221.73,16.15c0,6.22-3.32,11.89-10.36,11.89-6.41,0-10.16-5.18-10.16-11.72S204.83,4.59,211.6,4.59C217.85,4.59,221.73,9.51,221.73,16.15Zm-18.63.07c0,5.24,2.9,10.19,8.37,10.19,5.9,0,8.37-4.82,8.37-10.22s-2.8-10-8.3-10C205.68,6.22,203.1,11.07,203.1,16.22Z" transform="translate(-0.14 -0.32)"/><path class="cls-2" d="M244.65,20l-15.1,7.75V25.47l12.83-6.39V19l-12.83-6.38V10.39l15.1,7.75Z" transform="translate(-0.14 -0.32)"/><path class="cls-2" d="M120.57,57.25l15.11-7.78v2.24L123,58.1v.06l12.73,6.38v2.25L120.57,59Z" transform="translate(-0.14 -0.32)"/><path class="cls-2" d="M141.64,68.09l9.08-23.61h2.22l-9.12,23.61Z" transform="translate(-0.14 -0.32)"/><path class="cls-2" d="M177.46,66.79H176a17.63,17.63,0,0,1-.23-3.65c-.81,1.57-2.6,3.91-7.35,3.91-6.55,0-9.9-5-9.9-11.46,0-6.81,3.58-11.92,10.25-11.92,4.92,0,8.18,2.57,8.89,6.77h-1.76c-1-3.22-3.22-5.14-7.19-5.14-5.7,0-8.31,4.43-8.31,10.19,0,5.21,2.51,9.93,8.08,9.93s7.29-3.71,7.29-8.76V56.4h-7.35V54.77h9.05Z" transform="translate(-0.14 -0.32)"/><path class="cls-2" d="M189,56.14V66.79H187.2V44h8.17c4.49,0,6.87,2.41,6.87,6A5.17,5.17,0,0,1,198,55.33c2.35.55,3.91,2.08,3.91,6v.88c0,1.59-.13,3.74.29,4.62h-1.79c-.42-1-.32-2.8-.32-4.75v-.59c0-3.74-1.11-5.31-5.47-5.31Zm0-1.63h5.5c4,0,5.86-1.49,5.86-4.49,0-2.8-1.82-4.4-5.37-4.4h-6Z" transform="translate(-0.14 -0.32)"/><path class="cls-2" d="M213.41,44V66.79h-1.76V44Z" transform="translate(-0.14 -0.32)"/><path class="cls-2" d="M224,66.79V44h2.6c3.55,5.47,11.89,18.2,13.32,20.67h0c-.2-3.29-.17-6.64-.17-10.35V44h1.79V66.79h-2.41c-3.38-5.27-11.85-18.53-13.48-21h0c.16,3,.13,6.32.13,10.46V66.79Z" transform="translate(-0.14 -0.32)"/><path class="cls-3" d="M252.1,66.79V44h2.6c3.55,5.47,11.89,18.2,13.32,20.67h0c-.19-3.29-.16-6.64-.16-10.35V44h1.79V66.79h-2.41c-3.39-5.27-11.85-18.53-13.48-21h0c.16,3,.13,6.32.13,10.46V66.79Z" transform="translate(-0.14 -0.32)"/><path class="cls-2" d="M294,59l-15.11,7.75V64.54l12.83-6.38V58.1l-12.83-6.39V49.47L294,57.22Z" transform="translate(-0.14 -0.32)"/></g></g></svg>