<?xml version="1.0" encoding="utf-8"?>
<!-- Generator: Adobe Illustrator 22.1.0, SVG Export Plug-In . SVG Version: 6.00 Build 0)  -->
<svg version="1.1" id="Capa_1" xmlns="http://www.w3.org/2000/svg" xmlns:xlink="http://www.w3.org/1999/xlink" x="0px" y="0px"
	 viewBox="0 0 255.8 55.7" style="enable-background:new 0 0 255.8 55.7;" xml:space="preserve">
<style type="text/css">
	.st0{fill:#F5F4F0;}
	.st1{fill:#2D2C2F;}
	.st2{fill:#A8281A;}
</style>
<title>Recurso 4</title>
<g id="Capa_2_1_">
	<g id="Capa_1-2">
		<rect x="6.3" y="0.5" class="st0" width="197.4" height="25.5"/>
		<rect x="6.3" y="29.7" class="st0" width="227.2" height="25.5"/>
		<path class="st1" d="M7.9,14.1l11.5-5.9v1.7l-9.7,4.9v0l9.7,4.9v1.7L7.9,15.4V14.1z"/>
		<path class="st1" d="M26.4,4h1.3v16.1h9.3l-0.2,1.2H26.4V4z"/>
		<path class="st1" d="M52.9,12.8H44v7.3h9.7l-0.2,1.2H42.7V4h10.7v1.2H44v6.4h8.9V12.8z"/>
		<path class="st1" d="M74.6,12.5c0,4.7-2.5,9-7.9,9c-4.9,0-7.7-4-7.7-8.9s2.8-8.9,7.9-8.9C71.6,3.7,74.6,7.5,74.6,12.5z M60.4,12.6
			c0,4,2.2,7.8,6.4,7.8c4.5,0,6.4-3.7,6.4-7.8S71,5,66.8,5C62.4,5,60.4,8.7,60.4,12.6z"/>
		<path class="st1" d="M81.4,21.4V4h2c2.7,4.2,9.1,13.9,10.2,15.8l0,0c-0.1-2.5-0.1-5.1-0.1-7.9V4h1.4v17.4h-1.8
			c-2.6-4-9-14.1-10.3-16l0,0c0.1,2.3,0.1,4.8,0.1,8v8H81.4z"/>
		<path class="st1" d="M104.4,15.4l-2.2,6h-1.4L107.2,4h1.6l6.7,17.4H114l-2.3-6L104.4,15.4z M111.3,14.1c-1.9-5.2-2.9-7.6-3.3-8.8
			l0,0c-0.4,1.3-1.5,4.4-3.1,8.8H111.3z"/>
		<path class="st1" d="M122.8,13.2v8.1h-1.4V4h6.2c3.4,0,5.2,1.8,5.2,4.6c0.1,2-1.3,3.7-3.2,4.1c1.8,0.4,3,1.6,3,4.6v0.7
			c0,1.2-0.1,2.9,0.2,3.5h-1.4c-0.3-0.8-0.3-2.1-0.3-3.6v-0.4c0-2.9-0.8-4-4.2-4L122.8,13.2z M122.8,12h4.2c3.1,0,4.5-1.1,4.5-3.4
			c0-2.1-1.4-3.3-4.1-3.3h-4.6L122.8,12z"/>
		<path class="st1" d="M140.1,4h5.8c4.8,0,8.1,3.3,8.1,8.5s-3.2,8.8-8.1,8.8h-5.7V4z M141.5,20.1h4.2c4.6,0,6.9-3.2,6.9-7.5
			c0-3.8-2-7.4-6.9-7.4h-4.2V20.1z"/>
		<path class="st1" d="M175.3,12.5c0,4.7-2.5,9.1-7.9,9.1c-4.9,0-7.7-4-7.7-8.9s2.8-8.9,7.9-8.9C172.4,3.7,175.3,7.5,175.3,12.5z
			 M161.1,12.6c0,4,2.2,7.8,6.4,7.8c4.5,0,6.4-3.7,6.4-7.8S171.7,5,167.6,5C163.1,5,161.1,8.7,161.1,12.6L161.1,12.6z"/>
		<path class="st1" d="M192.8,15.5l-11.5,5.9v-1.7l9.8-4.9v-0.1l-9.8-4.9V8.2l11.5,5.9V15.5z"/>
		<path class="st1" d="M98.2,43.9l11.5-5.9v1.7l-9.7,4.9v0l9.7,4.9v1.7l-11.6-5.9V43.9z"/>
		<path class="st1" d="M114.2,52.2l6.9-18h1.7l-7,18H114.2z"/>
		<path class="st1" d="M141.6,51.2h-1.1c-0.2-0.9-0.2-1.9-0.2-2.8c-0.6,1.2-2,3-5.6,3c-5,0-7.6-3.8-7.6-8.7c0-5.2,2.7-9.1,7.8-9.1
			c3.8,0,6.2,2,6.8,5.2h-1.3c-0.8-2.5-2.5-3.9-5.5-3.9c-4.3,0-6.3,3.4-6.3,7.8c0,4,1.9,7.6,6.2,7.6c4.2,0,5.6-2.8,5.6-6.7v-0.2h-5.6
			V42h6.9L141.6,51.2z"/>
		<path class="st1" d="M150.4,43v8.1H149V33.8h6.2c3.4,0,5.2,1.8,5.2,4.6c0.1,2-1.3,3.7-3.2,4.1c1.8,0.4,3,1.6,3,4.6v0.7
			c0,1.2-0.1,2.9,0.2,3.5h-1.4c-0.3-0.8-0.2-2.1-0.2-3.6v-0.4c0-2.9-0.8-4-4.2-4L150.4,43z M150.4,41.8h4.2c3.1,0,4.5-1.1,4.5-3.4
			c0-2.1-1.4-3.4-4.1-3.4h-4.6L150.4,41.8z"/>
		<path class="st1" d="M169,33.8v17.4h-1.3V33.8H169z"/>
		<path class="st1" d="M177.1,51.2V33.8h2c2.7,4.2,9.1,13.9,10.2,15.8l0,0c-0.2-2.5-0.1-5.1-0.1-7.9v-7.9h1.4v17.4h-1.8
			c-2.6-4-9-14.1-10.3-16l0,0c0.1,2.3,0.1,4.8,0.1,8v8H177.1z"/>
		<path class="st2" d="M198.5,51.2V33.8h2c2.7,4.2,9.1,13.9,10.2,15.8l0,0c-0.1-2.5-0.1-5.1-0.1-7.9v-7.9h1.4v17.4H210
			c-2.6-4-9-14.1-10.3-16l0,0c0.1,2.3,0.1,4.8,0.1,8v8H198.5z"/>
		<path class="st1" d="M230.4,45.2l-11.5,5.9v-1.7l9.8-4.9v0l-9.8-4.9V38l11.5,5.9V45.2z"/>
	</g>
</g>
</svg>
