<?xml version="1.0" encoding="utf-8"?>
<!-- Generator: Adobe Illustrator 22.1.0, SVG Export Plug-In . SVG Version: 6.00 Build 0)  -->
<svg version="1.1" id="Capa_1" xmlns="http://www.w3.org/2000/svg" xmlns:xlink="http://www.w3.org/1999/xlink" x="0px" y="0px"
	 viewBox="0 0 44 44" style="enable-background:new 0 0 44 44;" xml:space="preserve">
<style type="text/css">
	.st0{fill:#2D2C2F;}
</style>
<g>
	<g>
		<path class="st0" d="M39.3,6.7H5c-2,0-3.7,1.6-3.7,3.7v24.4c0,2,1.6,3.7,3.7,3.7h34.3c2,0,3.7-1.6,3.7-3.7V10.4
			C42.9,8.3,41.3,6.7,39.3,6.7z M38.8,9.1L22.2,25.7L5.5,9.1H38.8z M3.8,34.2V10.8l11.7,11.6L3.8,34.2z M5.5,35.9l11.7-11.7l4.1,4.1
			c0.5,0.5,1.2,0.5,1.7,0l4-4L38.7,36L5.5,35.9L5.5,35.9z M40.5,34.2L28.8,22.5l11.7-11.7V34.2z"/>
	</g>
</g>
</svg>
