<?xml version="1.0" encoding="utf-8"?>
<!-- Generator: Adobe Illustrator 22.1.0, SVG Export Plug-In . SVG Version: 6.00 Build 0)  -->
<svg version="1.1" id="Capa_1" xmlns="http://www.w3.org/2000/svg" xmlns:xlink="http://www.w3.org/1999/xlink" x="0px" y="0px"
	 viewBox="0 0 512 512" style="enable-background:new 0 0 512 512;" xml:space="preserve">
<style type="text/css">
	.st0{fill:#9A3324;}
</style>
<path class="st0" d="M361.5,512c-22.5,0-44.7-5-64.8-14.4c-14.3,2.3-26.5,3.4-38.2,3.4C123.1,501,13,392.2,13,258.4
	c0-13,1.3-26.6,3.9-41.2C5.8,196.2,0,172.6,0,148.7C0,66.7,67.5,0,150.6,0c25.8,0,51.1,6.5,73.5,18.9c10.2-1.3,21.4-1.9,34.5-1.9
	c65.4,0,126.8,25.1,172.9,70.5c46.1,45.5,71.6,106.2,71.6,170.9c0,17.1-1.2,31.7-3.6,45.1c8.4,18.8,12.6,38.8,12.6,59.7
	C512,445.3,444.5,512,361.5,512z M303,455.8l6.1,3.3c15.9,8.5,34,12.9,52.3,12.9c60.9,0,110.5-48.8,110.5-108.7
	c0-17-3.8-33.2-11.4-48.1l-3.2-6.4l1.6-7c2.8-12.4,4.1-26.2,4.1-43.3C463,147.4,371.3,57,258.5,57c-14.1,0-25.3,0.8-35.2,2.5
	l-7.5,1.3l-6.4-4c-17.6-10.9-38-16.7-58.9-16.7C89.6,40,40,88.8,40,148.7c0,19.3,5.2,38.3,15.1,54.9l4,6.7l-1.6,7.6
	c-3,14.8-4.5,28.1-4.5,40.5C53,370.1,145.2,461,258.5,461c10.9,0,22.9-1.3,37.7-3.9L303,455.8z M385,310.9c0-14.4-2.8-26.8-8.5-36.8
	s-13.6-18.3-23.6-24.8C343,242.9,331,237.5,317,233c-13.8-4.4-29.4-8.4-46.4-12c-13.4-3.1-23.2-5.5-29-7.1
	c-5.7-1.6-11.4-3.8-16.9-6.5c-5.3-2.6-9.5-5.8-12.5-9.4c-2.8-3.4-5.1-7.4-5.1-12.1c0-7.8,5.2-14.3,13.9-20
	c9.1-5.9,21.3-8.4,36.3-8.4c16.2,0,28,2.2,35,7.5c7.3,5.5,13.6,13.3,18.8,23.2c4.5,7.7,8.6,13.1,12.5,16.6
	c4.2,3.7,10.3,5.4,18.1,5.4c8.5,0,15.8-2.8,21.5-8.7s9.7-12.7,9.7-20.1c0-7.7-3.3-15.7-7.7-23.8c-4.3-8-11.2-15.6-20.4-22.8
	c-9.1-7.1-20.8-12.9-34.6-17.2c-13.8-4.3-30.3-6.4-49-6.4c-23.4,0-44.1,3.2-61.5,9.6c-17.7,6.5-31.4,16-40.7,28.1
	c-9.5,12.2-15,26.4-15,42.2c0,16.5,5.3,30.6,14.3,41.8c8.9,11,21,19.8,36.1,26.2c14.7,6.2,33.2,11.7,55,16.3c16,3.4,29,6.6,38.5,9.5
	c9.1,2.8,16.7,7,22.4,12.3c5.4,5.1,8.4,11.5,8.4,19.8c0,10.4-5.4,19-15.9,26c-10.7,7.3-24.9,10.1-42.2,10.1c-12.6,0-22.9-1-30.5-4.6
	c-7.6-3.5-13.5-8.1-17.6-13.5c-4.3-5.7-8.4-12.8-12.1-21.3c-3.3-7.8-7.4-13.8-12.3-17.9c-5.1-4.2-11.3-6.8-18.5-6.8
	c-8.8,0-16.1,3.1-21.9,8.5c-5.8,5.4-8.7,12.1-8.7,19.7c0,12.2,4.5,24.9,13.5,37.7c8.8,12.6,20.4,22.9,34.5,30.5
	c19.7,10.4,45,15.7,75.1,15.7c25.1,0,47.2-3.9,65.5-11.5c18.6-7.7,32.9-18.5,42.6-32.1C380.1,343.7,385,328,385,310.9z"/>
</svg>
